<?xml version="1.0" encoding="utf-8"?>
<!-- Generator: Adobe Illustrator 18.0.0, SVG Export Plug-In . SVG Version: 6.00 Build 0)  -->
<!DOCTYPE svg PUBLIC "-//W3C//DTD SVG 1.1//EN" "http://www.w3.org/Graphics/SVG/1.1/DTD/svg11.dtd">
<svg version="1.1" id="Ebene_1" xmlns="http://www.w3.org/2000/svg" xmlns:xlink="http://www.w3.org/1999/xlink" x="0px" y="0px"
	 viewBox="0 0 115.8 103.5" enable-background="new 0 0 115.8 103.5" xml:space="preserve">
<g>
	<defs>
		<rect id="SVGID_1_" x="14.8" y="28.4" width="85.7" height="75.2"/>
	</defs>
	<clipPath id="SVGID_2_">
		<use xlink:href="#SVGID_1_"  overflow="visible"/>
	</clipPath>
</g>
<path fill="#FFFFFF" d="M82,97.9c-1,0.2-2.1,0.4-3.1,0.7c-0.4,0.1-0.6,0.5-0.9,0.8c-0.2,0.1-0.3,0.3-0.5,0.4
	c-0.7,0.2-1.4,0.4-2.1,0.5c-1.2,0.2-2.3,0.4-3.5,0.6c-0.5,0.1-1.1,0.2-1.6,0.3c-0.8,0.1-1.5,0.1-2.3,0.1c-1.4-0.1-2.7,0.2-4.1,0.2
	c-1.3,0-2.5,0.3-3.8,0.1c-1-0.2-2.1-0.1-3.1-0.2c-1.5-0.1-3-0.3-4.5-0.4c-1.3-0.1-2.6-0.3-3.9-0.5c-1.9-0.3-3.9-0.7-5.8-1.1
	c-2.2-0.4-4.1-1.3-6.1-2.1c-1.5-0.5-3-1.1-4.5-1.7c-1.1-0.5-2.2-1-3.3-1.6c-1.4-0.7-2.8-1.3-4.2-2c-0.6-0.3-1.2-0.8-1.8-1.2
	c0,0,0,0-0.1,0c-1.3-0.4-2.2-1.4-3.4-2c-1.1-0.5-2.2-1.1-3-1.9c-0.8-0.1-1.1-0.8-1.6-1.2c-0.8-0.6-1.6-1.1-2.2-1.9
	c-0.1-0.1-0.3-0.1-0.4-0.2c-0.5-0.1-0.9-0.3-1.2-0.7C10,81.9,9.2,81,8.6,80c-0.4-0.6-0.9-1.1-1.4-1.7c-0.2-0.2-0.3-0.4-0.4-0.6
	c-0.3-0.3-0.5-0.7-0.8-1c-0.6-0.6-1-1.3-1.4-2.1c-0.1-0.2-0.2-0.5-0.3-0.7c0-0.1-0.1-0.2-0.2-0.2c-0.6-0.1-0.7-0.6-0.9-1
	c-0.4-1.1-0.7-2.2-1.1-3.3c-0.1-0.3-0.2-0.7-0.4-1c-0.4-0.6-0.7-1.3-0.8-2c-0.2-1-0.4-2.1-0.6-3.1C0.2,62.9,0.4,62.4,0,62
	c0,0,0-0.1,0-0.1c0.3-0.3,0.2-0.6,0-0.9c0-0.1,0-0.3,0-0.4c0,0,0-0.1,0-0.1c0-0.7,0-1.4,0-2c0-0.1,0-0.2,0-0.3c0-0.2,0-0.4,0-0.6
	c0.1-0.5,0.2-0.9,0.3-1.4c0.2-1.9,0.3-3.8,0.6-5.6c0.3-2.1,0.8-4.2,1.3-6.3c0.5-2,1.2-4,1.8-6c0.7-2.3,1.8-4.4,2.8-6.5
	c0.2-0.5,0.4-1,0.6-1.5c0.7-1.6,1.5-3.1,2.3-4.6c0.5-1,1.1-2,1.7-3c0.8-1.2,1.5-2.4,2.4-3.6c0.9-1.2,1.9-2.3,2.8-3.5
	c0.9-1.1,1.8-2.2,2.9-3.1c0.9-0.8,1.9-1.4,2.8-2.2c0.6-0.5,1.3-0.8,1.9-1.2c0,0,0.1-0.1,0.1-0.1c0.9-1.1,2.2-1.6,3.5-2.1
	c0.6-0.2,1.2-0.7,1.9-0.9c0.7-0.1,1-0.8,1.6-0.9c0.6-0.1,1.2-0.4,1.8-0.7c0.3-0.2,0.6-0.5,0.9-0.7c0.4-0.2,1-0.4,1.4-0.5
	c1.4-0.4,2.9-0.7,4.3-1.1C40.8,1.7,42,1.3,43.1,1C43.5,1,43.9,1,44.2,0.9c0.5-0.1,1-0.3,1.5-0.3c1.7-0.1,3.4-0.2,5-0.3
	c0.9,0,1.9,0,2.8-0.1c0.5,0,1-0.2,1.4-0.2c1.7,0.1,3.3,0.2,5,0.3c0.8,0.1,1.6,0.1,2.4,0.2c1.8,0.3,3.6,0.2,5.4,0.7
	c1.4,0.3,2.8,0.4,4.1,0.6c1,0.2,2,0.4,3,0.6c1,0.2,2,0.4,2.9,0.8c0.7,0.2,1.5,0.5,2.1,0.9c1,0.5,2,1.2,3,1.8
	c0.1,0.1,0.2,0.2,0.3,0.3c-0.1,0.1-0.2,0.1-0.2,0.2c0.4,0.6,0.4,1.2,0,1.8c-0.1,0.2-0.3,0.4-0.3,0.6c-0.1,0.7-0.6,1.1-1,1.5
	c-0.2,0.2-0.5,0.2-0.8,0.4c-0.1,0.2-0.2,0.5-0.3,0.8c0,0-0.1,0-0.1,0c-0.7-0.8-1.7-1-2.6-1.5c-1.6-0.9-3.1-1.7-4.9-2.1
	c-1.1-0.2-2.2-0.5-3.3-0.7c-1.5-0.3-3-0.6-4.5-0.8c-1.5-0.2-3-0.4-4.5-0.6c-2.5-0.3-5.1-0.3-7.6-0.3c-2.8,0-5.6,0.2-8.5,0.6
	c-1.3,0.2-2.7,0.2-4,0.5c-2.5,0.5-4.9,1.2-7.3,2.2c-1.5,0.6-3,1.2-4.5,1.9c-2.4,1.1-4.6,2.3-6.7,3.9c-1.5,1.1-3,2.3-4.3,3.8
	c-0.6,0.7-1.3,1.2-1.9,1.8c-1,1.1-1.9,2.2-2.8,3.3c-0.8,1-1.5,2-2.2,3c-0.8,1.3-1.6,2.6-2.3,3.9c-0.5,0.9-0.8,2-1.4,2.9
	c-0.4,0.6-0.7,1.3-0.9,2c-0.6,1.9-1.1,3.8-1.6,5.7c-0.4,1.6-0.8,3.2-1.1,4.9c-0.2,1.2-0.3,2.5-0.5,3.7c-0.1,0.6-0.2,1.2-0.2,1.9
	c0,1.4,0,2.8,0,4.1c0,0.7,0.1,1.4,0.2,2.1c0.1,1.4,0.5,2.8,0.8,4.2c0.2,0.9,0.5,1.7,0.9,2.4c1.3,2.5,2.6,5,4,7.5
	c0.4,0.8,1,1.5,1.7,2.2c1.2,1.4,2.4,2.8,3.6,4.1c1,1,2.2,2,3.3,2.9c1,0.8,2,1.4,3,2.1c1.2,0.8,2.4,1.6,3.6,2.3
	c0.5,0.3,1,0.6,1.6,0.9c2.6,1.3,5.2,2.6,7.8,3.9c1.5,0.7,3,1.3,4.5,1.9c2,0.7,4,1.3,6,1.9c0.6,0.2,1.2,0.4,1.8,0.6
	c0.6,0.2,1.2,0.2,1.7,0.4c0.6,0.2,1.3,0.4,1.9,0.6c0.4,0.1,0.9,0.1,1.3,0.2c1.6,0.3,3.1,0.5,4.7,0.7c0.9,0.1,1.7,0.2,2.6,0.2
	c1.7,0.1,3.4,0.3,5.1,0.3c1.7,0,3.3,0,4.9-0.1c1.3,0,2.5-0.1,3.8-0.2c0.9-0.1,1.9-0.3,2.8-0.4c1.1-0.2,2.2-0.3,3.4-0.4
	c0.2,0,0.4-0.1,0.6-0.1c1.5-0.4,3.1-0.7,4.6-1.1c0.7-0.2,1.3-0.5,2-0.6c1.1-0.2,1.9-0.8,2.9-1.2c1-0.3,2-0.7,2.9-1.1
	c1.2-0.6,2.4-1.3,3.5-2.1c1.1-0.7,2.2-1.6,3.2-2.4c1.6-1.1,2.9-2.5,4.1-3.9c1.2-1.4,2.4-2.8,3.4-4.4c0.3-0.6,0.8-1.1,1.2-1.7
	c1.1-1.8,2.3-3.7,3-5.7c0.5-1.3,0.8-2.7,1.2-4.1c0.1-0.5,0.3-1,0.4-1.4c0.2-1,0.2-2.1,0.6-3.1c0.5-1.1,0.1-2.3,0.3-3.5
	c0.2-1.1,0.3-2.2,0.3-3.3c0.1-1.3,0.2-2.6,0.1-3.9c0-1.4-0.2-2.7-0.3-4.1c-0.1-0.8-0.2-1.7-0.3-2.5c-0.1-2-0.5-4-1-6
	c-0.7-3-2-5.7-3.4-8.3c-1-1.7-2-3.4-3.2-5c-0.5-0.7-1.1-1.3-1.8-1.9c-1.4-1.3-2.8-2.5-4.3-3.6c-1.7-1.2-3.5-2.2-5.5-3
	c-3-1.1-6-1.8-9.1-2.3c-0.6-0.1-1.3-0.2-1.9-0.3c-0.2,0-0.3-0.2-0.5-0.3c-0.8,0.3-1.7,0-2.5,0c-0.8,0-1.6-0.3-2.4-0.5
	c0-0.2,0.1-0.4,0.4-0.4c1.3,0,2.6,0,3.9,0.1c0.3,0,0.7,0.1,1.1,0.2c0.5,0.1,0.9,0.3,1.4,0.1c0,0,0.1,0,0.1,0
	c0.9,0.2,1.8,0.3,2.7,0.5c1.2,0.2,2.4,0.5,3.5,0.7c0.3,0.1,0.5,0.2,0.8,0.2c0.3,0.1,0.6,0.2,0.9,0.2c0-0.1,0.1-0.1,0.1-0.2
	c-0.2-0.1-0.3-0.3-0.5-0.4c-1-0.3-2.1-0.7-3.2-1c-0.8-0.2-1.6-0.3-2.4-0.4c-1.2-0.2-2.5-0.3-3.7-0.4c-1-0.1-1.9-0.2-2.9-0.5
	c-0.6-0.2-1.1-0.5-1.8-0.5c-0.1,0-0.2-0.2-0.3-0.3c0.5-0.3,1-0.2,1.4-0.2c0.1,0,0.3,0.1,0.4,0.1c1.1-0.2,2.1,0.3,3.2,0.2
	c1.2-0.1,2.4,0.2,3.6,0.3c0.5,0.1,1.1,0.2,1.6-0.2c0.1-0.1,0.3,0,0.4,0c1.3,0.3,2.6,0.5,3.9,0.8c0.8,0.2,1.5,0.5,2.2,0.8
	c0.1,0,0.2,0.1,0.3,0.1c1.7,0.3,3.1,1,4.6,1.9c1.4,0.8,2.8,1.7,4,2.8c0.4,0.4,0.8,0.7,1.3,1.1c0.3-0.1,0.6,0.1,0.9,0.4
	c1.2,1.3,2.4,2.7,3.7,4.1c0.1-0.1,0.3-0.2,0.5-0.4c0.2,0.2,0.4,0.4,0.6,0.7c1.4,2.2,2.5,4.5,3.6,6.9c0.5,1.1,1,2.2,1.4,3.4
	c0.4,1.3,0.7,2.6,1,3.9c0.2,0.8,0.2,1.6,0.2,2.4c0.1,1.3,0.3,2.7,0.4,4c0.1,1.1,0.1,2.2,0.1,3.2c0,0.8-0.1,1.6-0.1,2.4
	c-0.1,1.2-0.2,2.4-0.4,3.6c-0.3,1.9-0.7,3.8-1.1,5.7c-0.4,1.5-0.9,3-1.4,4.5c-0.6,1.7-1.1,3.4-1.8,5c-1,2.3-2,4.7-3.4,6.8
	c-0.9,1.4-1.7,2.9-2.6,4.3c-1.2,1.7-2.5,3.3-3.8,4.9c-0.3,0.4-0.7,0.7-1,1.1c-0.3,0.3-0.7,0.4-0.9,0.8c-0.5,0.6-1.1,1.1-1.7,1.6
	c-0.4,0.4-0.8,0.8-1.2,1.2c-1.8,1.7-3.9,2.8-6.1,3.7c-0.6,0.2-1.1,0.6-1.6,0.9c-0.4,0.2-0.8,0.4-1.1,0.6c-0.3,0.1-0.7,0.1-0.6,0.6
	c0,0.1-0.2,0.2-0.4,0.3c-0.7,0.2-1.4,0.4-2,0.7c-0.3,0.1-0.5,0.2-0.7,0.3c-0.9,0.2-1.7,0.4-2.6,0.6c-0.1,0-0.3-0.1-0.5-0.1
	C81,98.3,81.5,98.1,82,97.9c0,0,0.1,0,0.2,0c0,0,0,0,0-0.1C82.1,97.8,82,97.8,82,97.9z M83.9,97.3c0-0.1,0-0.1-0.1-0.2
	c-0.5,0.1-0.9,0.3-1.4,0.4c0,0.1,0,0.1,0.1,0.2C83,97.6,83.5,97.5,83.9,97.3z"/>
<path fill="#FFFFFF" d="M77.1,29.7c-0.5-0.1-0.9-0.3-1.3-0.3c-0.6,0-1-0.2-1.1-0.8c-0.1-0.5-0.5-0.9-0.5-1.4c-0.1-1,0-2.1,0.1-3.1
	c0-0.4,0.2-0.8,0.3-1.2c0.1-0.3,0.3-0.4,0.6-0.4c0.3,0,0.5,0.1,0.6,0.5c0.3,1,0.8,1.7,2,1.9c0.4,0.1,0.6-0.1,0.8-0.4
	c0.3-0.6,0.5-1.3,0.7-1.9c0.2-0.5,0.4-1.1,0.7-1.6c0.2-0.5,1-0.4,1.3,0c0.3,0.5,0.5,1,0.3,1.7c-0.2,0.6,0,1.3,0,2.1
	c1.6,0,2.9-1.3,4.6-1.4c0.2,0.3,0.5,0.7,0.7,1c-0.4,0.6-0.8,1.1-1.1,1.6c-0.2,0.3-0.5,0.6-0.7,0.8c-1.3,1-2.4,2.4-4.1,2.7
	c0,0-0.1,0-0.1,0.1c-1.5,0.6-1.5,0.6-1.6,2.4c0,0.6,0,1.3,0.1,1.9c0.1,0.7,0.7,1.1,1.4,1.1c1.7-0.2,3.3-0.5,4.8-1.4
	c0.9-0.5,1.7-1.1,2.6-1.7c0.2-0.1,0.3-0.2,0.4-0.4c0.3-0.8,1.1-1.2,1.6-1.8c0.3,0.1,0.6,0.3,1,0.4c-0.3,0.6-0.3,1.2-0.7,1.7
	c-0.7,0.9-1.2,1.9-1.8,2.7c-0.6,0.8-1.4,1.5-2,2.3c0,0,0,0-0.1,0c-0.7,0.4-1.7,0.3-2,1.3c-0.8,0.2-1.3,0.8-2.2,0.7
	c-0.4,0-0.6,0.2-0.6,0.6c0.3,0.3,0.7,0.6,1.2,1c-0.1,0.4-0.1,0.9-0.2,1.5c-0.2,0.9-0.2,0.9,0.7,1.5c0.1-0.4,0.2-0.8,0.4-1.1
	c0.3-0.9,0.7-1.7,1.1-2.6c0.1-0.1,0.1-0.3,0.2-0.4c0.2-0.6,0.7-0.8,1.1-0.4c0.3,0.3,0.7,0.7,0.6,1.2c-0.2,1.1-0.3,2.2-0.4,3.3
	c-0.1,0.5,0.1,0.6,0.6,0.5c2-0.6,3.7-1.6,5.3-2.8c0.5-0.4,1.1-0.8,1.7-1.1c-0.1,0.5,0.3,1.1-0.1,1.6c-0.5,0.7-1,1.4-1.5,2.1
	c-0.1,0.1-0.2,0.3-0.2,0.4c-0.1,0.6-0.4,1-0.9,1.4c-0.5,0.4-0.8,0.9-1.3,1.3c-0.7,0.5-1.1,1.3-2,1.6c-0.4,0.1-0.6,0.5-1,0.7
	c-0.7,0.4-1.4,0.6-2.1,1c-0.2,0.1-0.3,0.3-0.4,0.4c-0.3,1.7-0.7,3.5-0.9,5.2c-0.2,1-0.2,1.9-0.2,2.9c0,0.7,0.2,1.5,0.6,2.1
	c0.1,0.2,0.3,0.3,0.5,0.4c0.8,0.2,1.7,0.3,2.5,0.1c0.9-0.2,1.9-0.3,2.8-0.5c0.7-0.2,1.4-0.4,2.1-0.7c1.2-0.5,2.3-1,3.5-1.6
	c1.2-0.6,2.1-1.6,2.9-2.6c0.2-0.3,0.5-0.6,0.8-0.8c0.1,0,0.1,0.1,0.2,0.1c-0.1,0.3-0.1,0.5-0.2,0.7c-0.1,0.3-0.2,0.5-0.2,0.8
	c-0.2,0.8-0.7,1.4-1.2,2c-0.7,0.9-1.4,1.7-2.4,2.4c-0.7,0.5-1.4,0.9-2.2,1.3c-1.1,0.6-2.2,1.2-3.3,1.7c-1.3,0.5-2.7,1-4.1,1.3
	c-0.4,0.1-1,0.1-1.4,0.2c-1.5,0.3-2.9-0.8-3.1-2.5c-0.1-0.5-0.4-1-0.3-1.6c0.1-1.7,0.2-3.5,0.4-5.2c0.1-0.6,0.3-1.2,0.4-1.8
	c0.1-0.3,0.1-0.7,0.1-1c-0.1,0-0.1-0.1-0.2-0.1c-0.3,0.2-0.6,0.5-0.8,0.7c-0.5,0.5-1.1,1.1-1.6,1.7c-0.4,0.4-0.8,0.8-1.3,1.1
	c-0.4,0.2-0.8,0.5-1.3,0.6c-1.7,0.3-1.8,0.3-2.1,2.1c-0.2,1-0.3,1.9-0.4,2.9c-0.1,0.6-0.2,1.1-0.7,1.6c-0.6-0.4-1.1-0.8-1.7-1.3
	c-0.1-0.1-0.1-0.4-0.1-0.6c0.2-1.2,0.4-2.4,0.6-3.6c0.1-0.6,0.1-1.1,0.2-1.7c0.6-0.3,1.1-0.5,1.7-0.9c0.7-0.4,0.9-1.4,0.3-1.9
	c-0.2-0.2-0.5-0.3-0.8-0.3c-0.6,0-1.2,0.1-1.8,0.1c-0.4-0.6-0.1-1.3-0.1-1.8c0-0.3,0.1-0.7,0.2-1.1c0.2-1,1-1.4,2-1.1
	c0.9,0.3,1.5,0.8,2,1.6c0.2,0.4,0.6,0.6,1,0.7c1.1,0.2,2.2-0.1,3.1-0.7c0.4-0.3,0.8-0.6,1.2-0.9c0.1-0.1,0.2-0.3,0.3-0.5
	c-0.2-0.2-0.4-0.3-0.6-0.4c-0.8-0.5-1.3-1.7-1.3-2.6c0-1.3,0.5-2.4,1-3.5c0.1-0.2,0.2-0.5,0.3-0.9c-0.7,0.4-1.2,0.6-1.7,1
	c-1.5,1-3.2,1.7-4.8,2.5c-0.1,0-0.3,0.1-0.3,0.1c-0.1,0.9-1.1,0.6-1.5,1.2c0,0.1-0.1,0.1-0.2,0.1c-1,0.3-2,0.7-3.1,1
	c0,0-0.1,0-0.2-0.1c0.3-0.3,0.6-0.5,0.9-0.8c0.9-0.9,1.9-1.7,2.8-2.7c0.7-0.7,0.6-0.9-0.1-1.6c-0.1-0.1-0.2-0.2-0.3-0.3
	c2.8-1.1,5.7-2.1,8.4-3.3c0-0.1,0-0.2-0.1-0.3c-0.3,0-0.5,0-0.8,0c-1.1,0.1-1.9-0.5-2.5-1.3c-0.4-0.5-0.4-1.2-0.5-1.8
	c-0.1-0.5-0.1-1-0.1-1.7c-0.7,0.4-1.2,0.8-1.7,1.1c-0.4,0.3-0.9,0.5-1.3,0.8c-0.5,0.3-1,0.2-1.3-0.1c-0.3-0.2-0.3-0.7-0.4-1
	c0-0.3,0.1-0.7,0.3-1c0.1-0.2,0.3-0.3,0.5-0.4c1-0.4,1.9-1,2.7-1.7c0.1-0.1,0.3-0.3,0.4-0.4C76.3,31.2,76.6,30.5,77.1,29.7z
	 M80.7,41.5L80.7,41.5L80.7,41.5L80.7,41.5z"/>
<path fill="#FFFFFF" d="M97.4,70.1c-0.4,0.9-0.9,1.6-1.5,2.2c-0.6,0.6-1.1,1.2-1.7,1.7c-0.2,0.2-0.3,0.5-0.6,0.7c-1,1-2,1.9-3.1,2.8
	c-0.4,0.3-0.8,0.6-1.3,0.8c-1,0.5-1.9,1.1-2.9,1.6c-1.2,0.5-2.4,1-3.8,1.1c-1.2,0.1-2.3-0.4-3.4-0.8c-0.5-0.2-0.7-0.7-1.1-1.1
	c-0.9-0.9-0.7-2.1-0.6-3.1c0.1-1,0.4-1.9,0.6-2.9c0.1-0.6-0.2-0.9-0.7-0.6c-0.8,0.4-1.7,0.9-2.5,1.3c-0.2,0.1-0.4,0.3-0.6,0.3
	c-0.5,0-0.8,0.3-1.1,0.6c-0.3,0.2-0.5,0.4-0.9,0.5c-1,0.4-2,0.8-2.9,1.3c-0.6,0.3-1.2,0.4-1.6,0.9c-0.1,0.1-0.3,0.1-0.5,0.2
	c-0.5,0.2-1,0.4-1.5,0.6c-0.8,0.4-1.7,0.8-2.5,1.2c-0.2,0.1-0.3,0.2-0.4,0.3c-1.1,0.9-2.3,1.5-3.6,1.9c-0.6,0.2-1.1,0.5-1.7,0.8
	c-0.1,0.1-0.2,0.1-0.3,0.1c-0.6,0.2-1.1,0.4-1.7,0.6c-0.5,0.2-1,0.3-1.6,0.4c-0.1,0-0.3,0-0.4,0.1c-0.3,0.4-0.7,0.4-1.1,0.5
	c-0.9,0.2-1.7,0.5-2.6,0.7c-0.1,0-0.2,0.2-0.3,0.2c-0.2,0.1-0.5,0.3-0.7,0.3c-1.8,0.2-3.7,0.2-5.5-0.2c-1-0.2-2-0.5-2.5-1.5
	c-0.1-0.1-0.2-0.3-0.3-0.4c-0.8-0.4-1-1.2-1.3-2c-0.3-0.8-0.8-1.6-1.1-2.5c-0.4-1.2-1.1-2.3-1.8-3.4c-0.8-1.2-2-1.6-3.5-1.5
	c-1.1,0.1-2.2,0.4-3.2,0.8c-0.7,0.3-1.3,0.8-1.9,1.3c-1.3,0.9-2.5,1.9-3.4,3.2c-0.3,0.5-0.8,0.5-1.3,0.2c0.6-1.5,1.2-3,1.7-4.5
	c0.4-1.2,1.1-2.3,2-3.2c1.3-1.3,2.6-2.5,4-3.5c0.9-0.6,2-0.9,3-1c1-0.2,2-0.3,3-0.4c0.5-0.1,0.8,0.2,1,0.6c0,0.1,0.2,0.2,0.2,0.2
	c0.3,0.2,0.6,0.3,0.9,0.4c0.5,0.2,0.9,0.5,1.2,1c0,0.1,0.1,0.1,0.1,0.2c0.5,0.5,0.7,1.1,0.1,1.7c-0.1,0.1-0.1,0.2-0.1,0.3
	c0.4,0.3,0.4,0.3,1.3,0.4c0.2,0.8,0.3,1.7,0.5,2.5c0.2,0.7,0.4,1.4,0.6,2c0.2,0.5,0.4,1,0.6,1.5c0.3,0.7,0.7,1.4,1.3,1.9
	c0.5,0.4,1.1,0.6,1.6,0.8c1.4,0.5,2.8,0.4,4.3,0.2c1-0.1,2-0.5,3.1-0.7c0.7-0.1,1.3-0.4,1.9-0.6c0.5-0.2,1-0.3,1.6-0.4
	c1.1-0.4,2.2-0.8,3.3-1.2c1.6-0.7,3.2-1.6,4.9-2.2c2-0.8,3.9-1.9,5.8-2.9c1.3-0.7,2.5-1.3,3.8-2.1c0.7-0.4,1.3-0.9,2-1.3
	c0.6-0.3,1.3-0.7,2-0.9c0.5-0.2,1,0.3,1.4,0.6c0.3,0.3,0.6,0.5,0.8,0.8c0.4,0.5,0.4,1.2,0.3,1.8c-0.2,0.8-0.5,1.5-0.7,2.3
	c-0.3,1.1-0.6,2.1-0.3,3.3c0.2,0.6,0.6,0.9,1.2,1.1c1.4,0.3,2.6,0.1,3.8-0.6c1.5-0.8,3-1.7,4.6-2.6c1.4-0.8,2.5-1.9,3.6-3
	c0.6-0.6,1.3-1.1,1.9-1.7C95.8,69.9,96.5,70,97.4,70.1z"/>
<path fill="#FFFFFF" d="M70.9,42.8c-0.6,0.4-1.1,0.9-1.7,1.3c-0.6,0.5-1.2,1-1.8,1.5c-1,0.9-1.2,1.3-1.4,2.6c-0.6,0.3-1.1,0-1.6-0.2
	c-1.3-0.4-2.2-1.2-2.6-2.5c-0.1-0.2,0-0.5,0.1-0.7c0.4-1.7,0.9-3.5,0.8-5.3c0-0.8,0.1-1.6,0.4-2.3c0.1-0.2,0.2-0.4,0.3-0.6
	c0.5-0.8,1.1-1.7,1.6-2.5c0.1-0.2,0.2-0.4,0.4-0.7c-0.5-0.1-0.9-0.2-1.3-0.2c-0.5,0-0.9,0.3-1.1,0.8c-0.2,0.4-0.3,0.8-0.3,1.2
	c0,0.6-0.4,1-0.6,1.6c-0.3,0.9-1.1,1.4-1.6,2.2c-0.1,0.1-0.4,0.2-0.6,0.1c-0.2-0.1-0.3-0.4-0.3-0.6c0.2-1,0.4-2.1,0.6-3.3
	c-1,0.6-1.4,1.6-2.2,2.2c-0.8,0.7-1.5,1.4-2.3,2c-0.8,0.6-1.7,1.1-2.5,1.7c-0.1-0.3-0.2-0.6-0.4-0.9c-0.3-0.5-0.7-0.7-1.2-0.3
	c-0.4,0.3-0.7,0.3-1.1,0c-0.9-0.6-1.4-1.5-1.9-2.4c-1.1,1.2-2.3,2.5-3.5,3.7c-1.2,1.2-3.6,1.6-5,0.7c-0.4-0.2-0.7-0.7-1-1
	c-0.2-0.2-0.3-0.4-0.5-0.7c-0.4,0.5-0.8,1-1.3,1.4c-0.7,0.7-1.5,1.4-2.7,1.4c0-0.3,0-0.7,0-1c0.1-0.6,0.2-1.2,0.3-1.8
	c0.1-0.3,0.2-0.6,0.5-0.7c0.7-0.2,1.2-0.7,1.7-1.1c0.3-0.2,0.6-0.5,0.8-0.8c0.2-0.2,0.4-0.5,0.4-0.8c0.3-1.3,0.6-2.5,0.9-3.8
	c0.3-0.9,0.6-1.8,0.9-2.8c0.1-0.2,0.1-0.3,0.2-0.5c0.4-0.7,1.1-0.7,1.6,0c0.3,0.3,0.3,0.6,0.2,1.1c-0.2,0.7-0.2,1.5-0.3,2.2
	C42.2,33.6,42,34,42,34.4c0,0.9-0.6,1.8-0.3,2.7c0.2,0.7,0.6,1.1,1.3,1.1c2,0.1,3.7-0.6,4.9-2.3c0.7-1,1.4-1.8,2-2.8
	c0.4-0.6,0.6-1.4,0.7-2.1c0.2-1,0.8-1.9,1.2-2.8c0.2-0.3,0.5-0.6,0.7-0.8c1-0.9,2.1-1.8,3.5-2.2c0.3-0.1,0.5-0.2,0.8-0.1
	c1.3,0.1,1.9,1.5,1.1,2.6c-0.4,0.5-0.9,0.9-1.4,1.4c-0.2,0.2-0.3,0.3-0.5,0.4c-0.5,0.5-1,0.8-1.7,1c-0.9,0.3-1.5,0.9-1.9,1.6
	c-0.6,1-0.1,2.3,1,2.9c1,0.6,1.8,0.6,2.7-0.1c0.9-0.7,1.8-1.3,2.6-2c0.6-0.5,1-1.1,1.5-1.6c0.2-0.2,0.3-0.4,0.5-0.5
	c0.4-0.3,0.5-0.8,0.4-1.2c-0.1-0.7-0.3-1.5-0.4-2.2c-0.1-1,0.3-1.9,0.6-2.9c0.4-1,0.7-2.1,1.1-3.2c0.4-0.9,1-1.6,2-1.9
	c0.5-0.1,1,0.1,1.4,0.4c0.6,0.6,1,1.3,1,2.2c0.1,1.5-0.2,2.9-0.9,4.2c-0.3,0.5-0.5,0.9-0.8,1.4C65,27.7,65,27.8,65,28.1
	c1-0.2,1.8,0.2,2.6,0.5c0.7,0.3,1.1,0.8,1.5,1.4c0.3,0.5,0.4,1,0.1,1.6c-0.4,0.7-0.8,1.5-1.2,2.2c-0.6,1-1.2,2.1-1.9,3.1
	c-0.4,0.6-0.7,1.2-1.1,1.8c-0.7,1-0.7,2.2-0.3,3.3c0.4,1.1,1.4,1.4,2.4,1.4c1.2,0,2.3-0.1,3.5-0.4C70.7,42.8,70.8,42.9,70.9,42.8
	L70.9,42.8z"/>
<path fill="#FFFFFF" d="M41.9,48.2C41.9,48.2,41.9,48.3,41.9,48.2c-0.8,0.9-0.9,1.4,0.2,2.5c0.3,0.3,0.6,0.6,1,0.9
	c-0.3,0.3-0.5,0.7-0.8,0.9c-1.1,0.9-2.1,1.8-3.4,2.4c0,0-0.1,0.1-0.1,0.1c-1.1,1.5-2.8,2.1-4.4,2.8c-0.4,0.2-0.8,0.5-1.2,0.7
	c-0.1,0.1-0.3,0.2-0.4,0.2c-1.1,0.2-2.3,0.4-3.4,0.1c-1.4-0.4-2.6-1.1-3.3-2.6c-0.8-1.7-1.3-3.5-1.4-5.3c-0.1-1-0.1-2.1-0.2-3.1
	c0-0.2-0.1-0.3-0.1-0.5c-0.5,0.4-1,0.8-1.4,1.2c-0.8,1-1.8,1.8-2.8,2.6c-0.9,0.8-1.8,1.5-2.9,2c-0.1,0.1-0.2,0.1-0.3,0.2
	c-0.4,0.1-0.6,0-0.6-0.4c0-0.3,0.1-0.6,0.2-0.9c0.2-0.4,0.3-0.8,0.2-1.2c0-0.1-0.1-0.3,0-0.4c0.7-1.2,0.8-2.4,0.9-3.7
	c0-0.4,0.1-0.6,0.6-0.7c1.3-0.3,2.4-1.1,3.3-2c0.6-0.5,1.2-1.1,1.8-1.7c0.5-0.4,1-0.8,1.4-1.3c0.3-0.3,0.4-0.7,0.4-1.1
	c0.4-2.1,0.9-4.2,1.3-6.3c0.4-2.1,1.1-4,1.8-6c0-0.1,0.1-0.1,0.1-0.2c0.7-0.9,1.4-1.8,2.1-2.7c0.1-0.2,0.4-0.2,0.6-0.3
	c0.1,0,0.2,0,0.2-0.1c0.4-0.4,0.8-0.8,1.3-1.1c0.7-0.4,1.4-1,2.3-1.2c1-0.2,1.9,0.5,1.9,1.6c0,0.7,0,1.4,0,2c0,0.1,0,0.2,0,0.3
	c-0.6,2.5-1.4,5-2.5,7.4c-0.6,1.3-1.2,2.7-1.8,4c-0.4,0.8-1,1.6-1.5,2.4c-0.5,0.8-1.1,1.6-1.7,2.4c-0.3,0.5-0.7,0.9-1.1,1.3
	c-0.3,0.3-0.5,0.7-0.3,1.1c0.2,0.7,0.2,1.5,0.3,2.3c0.2,1.4,0.8,2.7,1.9,3.7c1.1,1,2.4,1.4,3.9,1.2c1.1-0.2,2.3-0.3,3.3-0.8
	c1.2-0.6,2.3-1.2,3.4-1.9C41,48.9,41.4,48.6,41.9,48.2L41.9,48.2z M28,37.5c0.1,0,0.1,0,0.2,0.1c0.6-0.6,1.2-1.2,1.7-1.9
	c0.4-0.5,0.8-1.1,1.2-1.7c0.5-0.8,1.1-1.5,1.6-2.3c0.7-1.2,0.6-2.6,0.7-3.9c0-0.4-0.3-0.7-0.8-0.6c-0.3,0.1-0.5,0.2-0.7,0.4
	c-0.6,0.6-1.2,1.2-1.7,1.9c-0.6,0.8-1.3,1.7-1.4,2.8c-0.1,1-0.3,2-0.5,3.1C28.1,36.1,28.1,36.8,28,37.5z"/>
<path fill="#FFFFFF" d="M57.1,48.8c0.3,0,0.6,0,0.9,0c1-0.1,1.7,0.5,2.3,1.2c0.7,0.9,1.1,1,1.9,0.2c0.3-0.3,0.5-0.5,0.9-0.5
	c0.9,0,1.2,0.7,1.6,1.2c0.3,0.4,0.5,0.9,0.5,1.5c0,1,0.2,2.1,0.1,3.1c-0.1,1.1-0.2,2.2-0.5,3.2c-0.3,1-0.8,2-1.3,3
	c-0.5,1.2-1.3,2.3-2.2,3.3c-1.1,1.3-2.5,2.3-4.1,3c-0.8,0.3-1.7,0.6-2.6,0.7c-0.9,0.1-1.7-0.1-2.5-0.6c-0.4-0.2-0.8-0.5-1.2-0.7
	c0,0,0,0-0.1,0c-0.8-1-1.7-1.9-2-3.2c-0.1-0.3-0.2-0.5-0.3-0.8c-0.1-0.2-0.2-0.3-0.1-0.5c0.1-1.4,0.2-2.7,0.7-4
	c0.4-1.2,0.7-2.4,1-3.7c0.2-0.6,0.3-1.3,0.5-2c0.2-0.9,0.9-1.5,1.4-2.2c0.3-0.3,0.6-0.7,1-1c0.8-0.7,1.8-1,2.9-1
	C56.2,48.8,56.6,48.9,57.1,48.8C57.1,48.8,57.1,48.8,57.1,48.8z M59.7,57.8c-0.1-0.2-0.2-0.2-0.2-0.3c-0.2-0.3-0.2-0.8-0.5-1
	c-0.8-0.7-1.4-1.5-2.4-1.8c-0.3-0.1-0.6-0.2-0.9-0.2c-1.5,0-2.7,0.7-3.9,1.7c-0.8,0.7-0.8,1.5-0.6,2.3c0.4,1.5,1.5,2.7,3,3.2
	c1.7,0.6,3.3,0.4,4.9-0.3c1.5-0.6,2.8-1.6,3.9-2.8c0.3-0.3,0.4-0.7,0.3-1c-0.2-1-0.8-1.9-1.6-2.6c-0.3-0.3-0.9-0.2-1,0.3
	c-0.2,0.5-0.4,1.1-0.6,1.6C60,57.1,59.8,57.4,59.7,57.8z"/>
<path fill="#FFFFFF" d="M49.5,22.1c0.4,0.6,0.2,1,0.1,1.6c-0.3,0.9-1,1.3-1.5,1.9c-0.1,0.1-0.3,0.2-0.5,0.2c-1-0.1-1.6,0.5-2.4,0.8
	c-0.6,0.3-1.2,0.5-1.8,0.7c-0.6,0.2-1.3-0.4-1.2-1.1c0.1-0.7,0.3-1.4,0.4-2c0.3-0.9,0.5-1.7,0.9-2.6c0.2-0.5,0.5-1.1,0.8-1.6
	c0.2-0.3,1-0.4,1.3-0.2c0.5,0.4,1.2,0.7,1.3,1.5c0,0.4,0.8,0.9,1.2,0.9C48.5,22.2,49,22.1,49.5,22.1z"/>
<path fill="#FFFFFF" d="M42,48.2c0.8-0.6,1.5-1.2,2.3-1.8c0.3-0.2,0.5-0.3,0.8-0.4c0.1-0.1,0.3-0.1,0.3-0.2c0.3-0.4,0.5-0.9,0.9-1.1
	c0.6-0.4,1-1,1.7-1.3c0.6-0.2,1-0.7,1.5-1.1c0.4-0.3,0.8-0.7,1.3-1.1c0.1,0.6,0.2,1.2,0.3,1.7c0.2,0.6,0.1,1-0.4,1.5
	c-0.5,0.5-0.9,1.2-1.3,1.7c-0.2,0.3-0.5,0.5-0.7,0.7c-1,1-2,2-3,3C44.5,49.2,43.4,48.1,42,48.2L42,48.2z"/>
<path fill="#FFFFFF" d="M68.1,56.6c-0.1,0-0.3,0-0.4,0c-0.4-0.1-0.7-0.1-0.8-0.6c-0.1-0.4,0.1-0.8,0.4-1c0.5-0.3,1.1-0.6,1.7-0.7
	c1.4-0.2,2.7-0.3,4.1-0.4c0.3,0,0.5,0.1,0.6,0.4c0.1,0.3,0.1,0.6-0.3,0.8c-1.3,0.7-2.7,1.4-4.2,1.4C68.9,56.5,68.5,56.6,68.1,56.6z"
	/>
<path fill="#FFFFFF" d="M42.6,48.7c0.2,0.1,0.3,0.1,0.3,0.1c1.5,0.8,3,1.4,4.2,2.6c0.2,0.2,0.3,0.4,0.4,0.6c0.1,0.2,0.1,0.5,0,0.7
	c-0.2,0.2-0.5,0.3-0.7,0.2c-1.1-0.3-2.2-0.8-3.1-1.6c-0.6-0.5-1.1-1.1-1.6-1.7c-0.1-0.1-0.1-0.5,0-0.6
	C42.2,48.9,42.4,48.8,42.6,48.7z"/>
<path fill="#FFFFFF" d="M48.9,77.3c-0.4-0.3-0.4-0.7-0.4-1.1c0.2-1.9,0.9-3.7,2-5.2c0,0,0.1-0.1,0.1-0.1c0.2-0.1,0.4-0.2,0.6-0.3
	c0.1,0.2,0.3,0.4,0.3,0.6c0,0.5-0.1,1-0.2,1.6c-0.3,1.3-0.8,2.6-1.6,3.7C49.4,76.7,49.2,77,48.9,77.3z"/>
<path fill="#FFFFFF" d="M60.1,46.4c-0.2-1-0.1-2,0.1-3c0.2-1.3,0.6-2.6,1-3.9c0-0.2,0.1-0.3,0.2-0.5c0.2-0.3,0.7-0.3,0.8,0.1
	c0.1,0.2,0.1,0.5,0.1,0.7c-0.2,1.9-0.5,3.7-1,5.5C61.1,45.8,60.9,46.3,60.1,46.4z"/>
<path fill="#FFFFFF" d="M38.3,61.3c0.7-0.2,1.4-0.5,2.1-0.6c1.2-0.2,2.3-0.3,3.5-0.2c0.3,0,0.8,0,0.8,0.4c0,0.2-0.3,0.5-0.6,0.6
	c-1.2,0.6-2.4,1.1-3.8,0.9c-0.8-0.1-1.5-0.4-2.1-0.9C38.3,61.5,38.3,61.4,38.3,61.3z"/>
<path fill="#FFFFFF" d="M67.8,72.6c-1.7-0.1-4.5-3.8-4.1-5.2C65.2,67.4,67.8,70.7,67.8,72.6z"/>
<path fill="#FFFFFF" d="M71.7,43c0.1,0.1,0.3,0.2,0.4,0.3c0.1,0.1,0.2,0.2,0.3,0.3c-0.2,0.2-0.3,0.4-0.5,0.6
	c-1.2,1.2-2.5,2.4-3.7,3.5c-0.2,0.2-0.5,0.3-0.7,0.4c-0.2,0.1-0.4,0.1-0.5,0c-0.1-0.1-0.2-0.4-0.1-0.5c0.2-0.5,0.4-1,0.7-1.3
	c0.8-0.8,1.8-1.5,2.7-2.2C70.5,43.8,71.1,43.4,71.7,43z"/>
<path fill="#FFFFFF" d="M72.7,64.4c-1.3,0.6-5.2-1.1-5.9-2.4c0.3-0.3,0.6-0.3,1-0.3c1.9,0.2,3.5,1,4.7,2.3
	C72.5,64.1,72.6,64.3,72.7,64.4z"/>
<path fill="#FFFFFF" d="M41,71c1-1.7,2.3-3.1,4-4.2c0.2-0.1,0.5-0.3,0.7-0.3c0.5-0.1,0.7,0.1,0.4,0.6c-0.4,0.7-0.9,1.4-1.5,1.9
	c-0.9,0.9-1.9,1.6-3.1,2c-0.2,0.1-0.3,0.1-0.5,0.1C41.1,71.1,41,71,41,71z"/>
<path fill="#FFFFFF" d="M52.3,40.5c0.5,1,0.9,2.1,1.1,3.3c0.1,0.5,0.1,1,0.2,1.4c0,0.2,0,0.5-0.1,0.7c-0.1,0.3-0.2,0.6-0.5,0.6
	c-0.2,0-0.4-0.3-0.4-0.6c-0.3-1.5-0.6-3.1-0.9-4.6C51.5,40.8,51.8,40.6,52.3,40.5z"/>
<path fill="#FFFFFF" d="M58,71.5c1,0.9,1.5,4.1,0.8,5.2"/>
<path fill="#FFFFFF" d="M70.7,66.9c0-0.7,0-1.3,0-1.9c0.5,0.1,1,0.1,1.5,0.2C71.9,65.9,71.6,66.5,70.7,66.9z"/>
</svg>
