<?xml version="1.0" encoding="UTF-8"?>
<!DOCTYPE svg PUBLIC "-//W3C//DTD SVG 1.1//EN" "http://www.w3.org/Graphics/SVG/1.1/DTD/svg11.dtd">
<svg xmlns="http://www.w3.org/2000/svg" version="1.1" width="144px" height="87px" style="shape-rendering:geometricPrecision; text-rendering:geometricPrecision; image-rendering:optimizeQuality; fill-rule:evenodd; clip-rule:evenodd" xmlns:xlink="http://www.w3.org/1999/xlink">
<g><path style="opacity:0.908" fill="#FFD700" d="M 70.5,-0.5 C 71.1667,-0.5 71.8333,-0.5 72.5,-0.5C 83.4587,18.3345 88.6254,38.6679 88,60.5C 90.7894,52.1763 90.956,43.843 88.5,35.5C 92.5335,25.4665 99.8668,19.4665 110.5,17.5C 110.666,26.5062 110.5,35.5062 110,44.5C 109.535,48.3934 108.369,52.0601 106.5,55.5C 99.3296,55.9414 93.3296,58.7747 88.5,64C 87.552,64.4828 86.552,64.6495 85.5,64.5C 84.9474,68.4947 83.614,72.1614 81.5,75.5C 80.6618,75.8417 80.3284,76.5084 80.5,77.5C 79.8333,77.5 79.5,77.8333 79.5,78.5C 77.4836,80.3481 75.317,82.0148 73,83.5C 71.3745,82.7113 69.8745,81.7113 68.5,80.5C 51.3569,86.6728 35.8569,82.6728 22,68.5C 18.7224,63.9485 16.5558,58.9485 15.5,53.5C 22.2554,53.3868 28.922,54.0534 35.5,55.5C 33.0817,51.1709 31.5817,46.5042 31,41.5C 30.5003,33.1733 30.3336,24.84 30.5,16.5C 39.7365,17.867 47.2365,22.2003 53,29.5C 53.923,31.0344 54.423,32.701 54.5,34.5C 53.0478,41.8783 53.2145,49.2116 55,56.5C 54.9769,36.0721 60.1435,17.0721 70.5,-0.5 Z M 35.5,55.5 C 43.6084,54.9734 50.4418,57.64 56,63.5C 56.3333,62.8333 56.6667,62.1667 57,61.5C 58.0755,64.8944 59.2422,68.2278 60.5,71.5C 53.1959,64.5236 44.8626,59.1903 35.5,55.5 Z"/></g>
<g><path style="opacity:0.889" fill="#FFD700" d="M 79.5,78.5 C 80.1667,78.5 80.5,78.1667 80.5,77.5C 81.3382,77.1583 81.6716,76.4916 81.5,75.5C 94.3458,61.413 110.346,54.413 129.5,54.5C 124.617,70.8718 113.617,80.3718 96.5,83C 90.1405,83.8306 83.8072,83.6639 77.5,82.5C 78.6302,81.3777 79.2969,80.0443 79.5,78.5 Z"/></g>
</svg>
