<?xml version="1.0" encoding="UTF-8"?>
<!DOCTYPE svg PUBLIC "-//W3C//DTD SVG 1.1//EN" "http://www.w3.org/Graphics/SVG/1.1/DTD/svg11.dtd">
<svg xmlns="http://www.w3.org/2000/svg" version="1.1" width="139px" height="77px" style="shape-rendering:geometricPrecision; text-rendering:geometricPrecision; image-rendering:optimizeQuality; fill-rule:evenodd; clip-rule:evenodd" xmlns:xlink="http://www.w3.org/1999/xlink">
<g><path style="opacity:0.992" fill="#908a9e" d="M 73.5,2.5 C 73.8064,5.38544 73.4731,8.0521 72.5,10.5C 72.6716,9.50838 72.3382,8.84171 71.5,8.5C 71.9863,6.19327 71.9863,4.0266 71.5,2C 72.4368,1.30831 73.1034,1.47498 73.5,2.5 Z"/></g>
<g><path style="opacity:0.094" fill="#f3f3f1" d="M 71.5,8.5 C 70.8333,9.16667 70.8333,9.16667 71.5,8.5 Z"/></g>
<g><path style="opacity:0.98" fill="#b6b0bf" d="M 73.5,2.5 C 74.271,5.84584 74.9376,9.34584 75.5,13C 75.1667,13.5 74.8333,14 74.5,14.5C 73.2949,13.4231 72.6282,12.0898 72.5,10.5C 73.4731,8.0521 73.8064,5.38544 73.5,2.5 Z"/></g>
<g><path style="opacity:0.451" fill="#d5cfd9" d="M 89.5,12.5 C 89.1667,12.5 88.8333,12.5 88.5,12.5C 89.2544,10.5541 90.5878,9.72075 92.5,10C 91.6266,11.045 90.6266,11.8783 89.5,12.5 Z"/></g>
<g><path style="opacity:0.941" fill="#c7c2cf" d="M 31.5,13.5 C 30.5084,13.3284 29.8417,13.6618 29.5,14.5C 28.1667,14.8333 26.8333,15.1667 25.5,15.5C 25.5,14.8333 25.1667,14.5 24.5,14.5C 26.7134,12.6883 29.0467,12.3549 31.5,13.5 Z"/></g>
<g><path style="opacity:0.91" fill="#c7c2ce" d="M 57.5,13.5 C 56.6618,13.8417 56.3284,14.5084 56.5,15.5C 54.9014,14.2015 54.4014,12.5348 55,10.5C 56.045,11.3734 56.8783,12.3734 57.5,13.5 Z"/></g>
<g><path style="opacity:0.976" fill="#817c8f" d="M 88.5,12.5 C 88.8333,12.5 89.1667,12.5 89.5,12.5C 88.8333,13.8333 87.8333,14.8333 86.5,15.5C 86.5,15.1667 86.5,14.8333 86.5,14.5C 86.8333,13.5 87.5,12.8333 88.5,12.5 Z"/></g>
<g><path style="opacity:0.937" fill="#aba5b7" d="M 31.5,13.5 C 32.791,13.2627 33.791,13.596 34.5,14.5C 34.5,15.1667 34.1667,15.5 33.5,15.5C 31.901,15.7678 30.5676,15.4345 29.5,14.5C 29.8417,13.6618 30.5084,13.3284 31.5,13.5 Z"/></g>
<g><path style="opacity:0.988" fill="#9490a5" d="M 57.5,13.5 C 58.8606,15.5273 60.5273,17.194 62.5,18.5C 61.8333,18.5 61.5,18.8333 61.5,19.5C 59.246,18.8763 57.5794,17.543 56.5,15.5C 56.3284,14.5084 56.6618,13.8417 57.5,13.5 Z"/></g>
<g><path style="opacity:0.878" fill="#b5aec2" d="M 24.5,14.5 C 25.1667,14.5 25.5,14.8333 25.5,15.5C 24.609,16.1098 23.609,16.4431 22.5,16.5C 21.8333,16.8333 21.1667,17.1667 20.5,17.5C 20.5,16.8333 20.1667,16.5 19.5,16.5C 20.7804,15.0687 22.4471,14.4021 24.5,14.5 Z"/></g>
<g><path style="opacity:0.788" fill="#c8c2cf" d="M 34.5,14.5 C 35.8333,15.1667 36.8333,16.1667 37.5,17.5C 37.1667,17.5 36.8333,17.5 36.5,17.5C 35.2905,17.0679 34.2905,16.4013 33.5,15.5C 34.1667,15.5 34.5,15.1667 34.5,14.5 Z"/></g>
<g><path style="opacity:0.992" fill="#8a8796" d="M 86.5,14.5 C 86.5,14.8333 86.5,15.1667 86.5,15.5C 85.8333,16.8333 84.8333,17.8333 83.5,18.5C 82.8333,18.5 82.5,18.1667 82.5,17.5C 83.4363,16.0256 84.7697,15.0256 86.5,14.5 Z"/></g>
<g><path style="opacity:0.451" fill="#dcdade" d="M 22.5,16.5 C 22.573,18.0269 21.9063,19.0269 20.5,19.5C 19.4937,18.6043 19.4937,17.9377 20.5,17.5C 21.1667,17.1667 21.8333,16.8333 22.5,16.5 Z"/></g>
<g><path style="opacity:0.988" fill="#9895a5" d="M 19.5,16.5 C 20.1667,16.5 20.5,16.8333 20.5,17.5C 19.4937,17.9377 19.4937,18.6043 20.5,19.5C 20.5,20.1667 20.1667,20.5 19.5,20.5C 18.8333,20.5 18.1667,20.5 17.5,20.5C 17.5,19.8333 17.1667,19.5 16.5,19.5C 17.1667,18.1667 18.1667,17.1667 19.5,16.5 Z"/></g>
<g><path style="opacity:0.525" fill="#d9d4dd" d="M 36.5,17.5 C 36.8333,17.5 37.1667,17.5 37.5,17.5C 38.5,17.8333 39.1667,18.5 39.5,19.5C 39.5,20.1667 39.1667,20.5 38.5,20.5C 37.8333,19.5 37.1667,18.5 36.5,17.5 Z"/></g>
<g><path style="opacity:0.957" fill="#9a98a3" d="M 62.5,18.5 C 63.4916,18.3284 64.1583,18.6618 64.5,19.5C 64.1583,20.3382 63.4916,20.6716 62.5,20.5C 62.1667,20.5 61.8333,20.5 61.5,20.5C 61.5,20.1667 61.5,19.8333 61.5,19.5C 61.5,18.8333 61.8333,18.5 62.5,18.5 Z"/></g>
<g><path style="opacity:0.992" fill="#a9a6af" d="M 82.5,17.5 C 82.5,18.1667 82.8333,18.5 83.5,18.5C 82.6857,20.2726 81.3524,20.7726 79.5,20C 80.3734,18.955 81.3734,18.1217 82.5,17.5 Z"/></g>
<g><path style="opacity:1" fill="#555353" d="M 53.5,21.5 C 52.6043,20.4937 51.9377,20.4937 51.5,21.5C 51.1667,21.5 50.8333,21.5 50.5,21.5C 51.5,18.8333 52.5,18.8333 53.5,21.5 Z"/></g>
<g><path style="opacity:0.996" fill="#908da3" d="M 16.5,19.5 C 17.1667,19.5 17.5,19.8333 17.5,20.5C 17.5,20.8333 17.5,21.1667 17.5,21.5C 16.8333,22.1667 16.1667,22.8333 15.5,23.5C 15.5,22.8333 15.1667,22.5 14.5,22.5C 14.427,20.9731 15.0937,19.9731 16.5,19.5 Z"/></g>
<g><path style="opacity:1" fill="#121214" d="M 53.5,21.5 C 54.8333,22.5 54.8333,23.5 53.5,24.5C 52.8333,24.5 52.1667,24.5 51.5,24.5C 51.5,23.5 51.5,22.5 51.5,21.5C 51.9377,20.4937 52.6043,20.4937 53.5,21.5 Z"/></g>
<g><path style="opacity:0.353" fill="#e6e5e5" d="M 17.5,20.5 C 18.1667,20.5 18.8333,20.5 19.5,20.5C 18.5146,26.0413 17.848,26.3747 17.5,21.5C 17.5,21.1667 17.5,20.8333 17.5,20.5 Z"/></g>
<g><path style="opacity:0.353" fill="#ded9e1" d="M 39.5,19.5 C 40.8897,20.8993 41.8897,22.5659 42.5,24.5C 42.1583,25.3382 41.4916,25.6716 40.5,25.5C 40.6107,24.8826 40.944,24.3826 41.5,24C 40.2899,22.9609 39.2899,21.7942 38.5,20.5C 39.1667,20.5 39.5,20.1667 39.5,19.5 Z"/></g>
<g><path style="opacity:0.475" fill="#afadb0" d="M 53.5,21.5 C 54.1667,21.5 54.8333,21.5 55.5,21.5C 55.5,22.1667 55.5,22.8333 55.5,23.5C 55.1583,24.3382 54.4916,24.6716 53.5,24.5C 54.8333,23.5 54.8333,22.5 53.5,21.5 Z"/></g>
<g><path style="opacity:0.549" fill="#d5d1da" d="M 61.5,20.5 C 61.5,20.8333 61.5,21.1667 61.5,21.5C 61.5,21.8333 61.5,22.1667 61.5,22.5C 59.5,22.8333 57.5,23.1667 55.5,23.5C 55.5,22.8333 55.5,22.1667 55.5,21.5C 57.6208,21.6747 59.6208,21.3414 61.5,20.5 Z"/></g>
<g><path style="opacity:0.525" fill="#dedbe2" d="M 64.5,19.5 C 65.5345,21.817 64.5345,22.817 61.5,22.5C 61.5,22.1667 61.5,21.8333 61.5,21.5C 62.1667,21.5 62.5,21.1667 62.5,20.5C 63.4916,20.6716 64.1583,20.3382 64.5,19.5 Z"/></g>
<g><path style="opacity:0.761" fill="#bab6c4" d="M 50.5,21.5 C 50.8333,21.5 51.1667,21.5 51.5,21.5C 51.5,22.5 51.5,23.5 51.5,24.5C 50.5,24.5 49.5,24.5 48.5,24.5C 48.5,24.1667 48.5,23.8333 48.5,23.5C 49.1667,22.8333 49.8333,22.1667 50.5,21.5 Z"/></g>
<g><path style="opacity:1" fill="#9b97a4" d="M 71.5,26.5 C 71.5,25.8333 71.1667,25.5 70.5,25.5C 71.8342,23.841 73.5008,22.5076 75.5,21.5C 76.521,22.0016 76.6877,22.6683 76,23.5C 74.3853,24.3862 72.8853,25.3862 71.5,26.5 Z"/></g>
<g><path style="opacity:0.698" fill="#d4ced9" d="M 44.5,24.5 C 45.5676,23.5655 46.901,23.2322 48.5,23.5C 48.5,23.8333 48.5,24.1667 48.5,24.5C 47.791,25.404 46.791,25.7373 45.5,25.5C 45.5,24.8333 45.1667,24.5 44.5,24.5 Z"/></g>
<g><path style="opacity:0.047" fill="#f5f6f3" d="M 100.5,24.5 C 101.833,25.1667 101.833,25.1667 100.5,24.5 Z"/></g>
<g><path style="opacity:1" fill="#8b889b" d="M 14.5,22.5 C 15.1667,22.5 15.5,22.8333 15.5,23.5C 15.3653,25.5542 16.032,27.2209 17.5,28.5C 16.8333,28.5 16.5,28.8333 16.5,29.5C 12.5177,27.918 11.851,25.5846 14.5,22.5 Z"/></g>
<g><path style="opacity:0.949" fill="#9d97aa" d="M 42.5,24.5 C 43.1667,24.5 43.8333,24.5 44.5,24.5C 45.1667,24.5 45.5,24.8333 45.5,25.5C 44.8333,25.8333 44.1667,26.1667 43.5,26.5C 43.1667,26.5 42.8333,26.5 42.5,26.5C 41.8333,26.5 41.1667,26.5 40.5,26.5C 39.8333,26.5 39.5,26.1667 39.5,25.5C 39.8333,25.5 40.1667,25.5 40.5,25.5C 41.4916,25.6716 42.1583,25.3382 42.5,24.5 Z"/></g>
<g><path style="opacity:0.902" fill="#a5a0ae" d="M 51.5,24.5 C 52.1667,24.5 52.8333,24.5 53.5,24.5C 53.5,26.1667 53.5,27.8333 53.5,29.5C 52.8333,29.5 52.1667,29.5 51.5,29.5C 51.5,27.8333 51.5,26.1667 51.5,24.5 Z"/></g>
<g><path style="opacity:0.269" fill="#e3dfe3" d="M 92.5,27.5 C 92.5,26.8333 92.1667,26.5 91.5,26.5C 93.2251,25.095 95.2251,24.595 97.5,25C 95.9698,26.1203 94.3032,26.9536 92.5,27.5 Z"/></g>
<g><path style="opacity:0.824" fill="#c6c1cd" d="M 36.5,26.5 C 37.209,25.596 38.209,25.2627 39.5,25.5C 39.5,26.1667 39.8333,26.5 40.5,26.5C 40.1583,27.3382 39.4916,27.6716 38.5,27.5C 38.1583,26.6618 37.4916,26.3284 36.5,26.5 Z"/></g>
<g><path style="opacity:1" fill="#6f6a7a" d="M 70.5,25.5 C 71.1667,25.5 71.5,25.8333 71.5,26.5C 71.1667,27.1667 70.8333,27.8333 70.5,28.5C 69.6618,28.1583 69.3284,27.4916 69.5,26.5C 69.5,25.8333 69.8333,25.5 70.5,25.5 Z"/></g>
<g><path style="opacity:0.953" fill="#9a97a2" d="M 91.5,26.5 C 92.1667,26.5 92.5,26.8333 92.5,27.5C 89.9272,28.5552 87.2605,28.7218 84.5,28C 86.6775,26.7978 89.0108,26.2978 91.5,26.5 Z"/></g>
<g><path style="opacity:0.925" fill="#afaabc" d="M 31.5,27.5 C 32.9187,26.5489 34.5853,26.2155 36.5,26.5C 37.4916,26.3284 38.1583,26.6618 38.5,27.5C 36.8828,28.038 35.2161,28.3713 33.5,28.5C 33.1583,27.6618 32.4916,27.3284 31.5,27.5 Z"/></g>
<g><path style="opacity:0.812" fill="#c9c4cd" d="M 60.5,30.5 C 60.5,29.8333 60.1667,29.5 59.5,29.5C 61.1513,28.0299 62.9847,26.6966 65,25.5C 65.6667,26.1667 65.6667,26.8333 65,27.5C 63.3853,28.3862 61.8853,29.3862 60.5,30.5 Z"/></g>
<g><path style="opacity:0.996" fill="#6d697b" d="M 17.5,28.5 C 18.1667,28.5 18.8333,28.5 19.5,28.5C 19.5,29.1667 19.5,29.8333 19.5,30.5C 18.209,30.7373 17.209,30.404 16.5,29.5C 16.5,28.8333 16.8333,28.5 17.5,28.5 Z"/></g>
<g><path style="opacity:0.988" fill="#9895a2" d="M 23.5,28.5 C 24.9187,29.4511 26.5853,29.7845 28.5,29.5C 25.7131,30.4767 22.7131,30.81 19.5,30.5C 19.5,29.8333 19.5,29.1667 19.5,28.5C 20.5279,28.0742 21.8612,28.0742 23.5,28.5 Z"/></g>
<g><path style="opacity:0.941" fill="#7e7b8b" d="M 31.5,27.5 C 32.4916,27.3284 33.1583,27.6618 33.5,28.5C 31.9582,29.3007 30.2915,29.634 28.5,29.5C 26.5853,29.7845 24.9187,29.4511 23.5,28.5C 26.1272,27.9084 28.7938,27.5751 31.5,27.5 Z"/></g>
<g><path style="opacity:0.718" fill="#d4d0d5" d="M 42.5,26.5 C 42.8333,26.5 43.1667,26.5 43.5,26.5C 44.0906,27.1515 44.7573,27.8182 45.5,28.5C 43.6043,29.6394 42.6043,28.9728 42.5,26.5 Z"/></g>
<g><path style="opacity:0.992" fill="#9e9aa8" d="M 69.5,26.5 C 69.3284,27.4916 69.6618,28.1583 70.5,28.5C 69.8333,29.5 69.1667,30.5 68.5,31.5C 67.8333,31.5 67.5,31.1667 67.5,30.5C 67.6596,28.847 68.3263,27.5137 69.5,26.5 Z"/></g>
<g><path style="opacity:0.988" fill="#908d9c" d="M 59.5,29.5 C 60.1667,29.5 60.5,29.8333 60.5,30.5C 59.7095,31.4013 58.7095,32.0679 57.5,32.5C 56.8333,32.5 56.5,32.1667 56.5,31.5C 57.2905,30.5987 58.2905,29.9321 59.5,29.5 Z"/></g>
<g><path style="opacity:0.322" fill="#e8e2e9" d="M 46.5,33.5 C 45.7326,32.828 45.0659,31.9947 44.5,31C 46.0613,30.8119 46.728,31.6453 46.5,33.5 Z"/></g>
<g><path style="opacity:0.976" fill="#aba7b7" d="M 56.5,31.5 C 56.5,32.1667 56.8333,32.5 57.5,32.5C 56.8595,34.332 55.8595,34.6653 54.5,33.5C 54.8555,32.4777 55.5222,31.811 56.5,31.5 Z"/></g>
<g><path style="opacity:0.812" fill="#a7a3b1" d="M 67.5,30.5 C 67.5,31.1667 67.8333,31.5 68.5,31.5C 68.9731,32.9063 69.9731,33.573 71.5,33.5C 71.1583,34.3382 70.4916,34.6716 69.5,34.5C 66.6909,34.0423 66.0242,32.7089 67.5,30.5 Z"/></g>
<g><path style="opacity:0.659" fill="#c9c1d0" d="M 51.5,29.5 C 52.1667,29.5 52.8333,29.5 53.5,29.5C 53.5,31.5 53.5,33.5 53.5,35.5C 52.8333,35.1667 52.1667,34.8333 51.5,34.5C 51.5,32.8333 51.5,31.1667 51.5,29.5 Z"/></g>
<g><path style="opacity:0.724" fill="#d5d1da" d="M 77.5,33.5 C 77.5,33.8333 77.5,34.1667 77.5,34.5C 74.6717,35.4967 72.005,35.4967 69.5,34.5C 70.4916,34.6716 71.1583,34.3382 71.5,33.5C 73.8098,33.2417 75.8098,33.2417 77.5,33.5 Z"/></g>
<g><path style="opacity:1" fill="#595760" d="M 108.5,33.5 C 108.5,33.8333 108.5,34.1667 108.5,34.5C 107.71,35.4013 106.71,36.0679 105.5,36.5C 105.5,36.1667 105.5,35.8333 105.5,35.5C 105.973,34.0937 106.973,33.427 108.5,33.5 Z"/></g>
<g><path style="opacity:0.937" fill="#aca8b2" d="M 77.5,33.5 C 79.0481,33.8212 79.7148,34.8212 79.5,36.5C 79.5,36.8333 79.5,37.1667 79.5,37.5C 78.0937,37.0269 77.427,36.0269 77.5,34.5C 77.5,34.1667 77.5,33.8333 77.5,33.5 Z"/></g>
<g><path style="opacity:0.451" fill="#dbd5de" d="M 46.5,33.5 C 47.6737,34.5137 48.3404,35.847 48.5,37.5C 48.5,37.8333 48.5,38.1667 48.5,38.5C 47.0687,37.2196 46.4021,35.5529 46.5,33.5 Z"/></g>
<g><path style="opacity:0.6" fill="#d7d2dc" d="M 51.5,34.5 C 52.1667,34.8333 52.8333,35.1667 53.5,35.5C 53.5,35.8333 53.5,36.1667 53.5,36.5C 52.8333,37.1667 52.1667,37.8333 51.5,38.5C 51.5,37.1667 51.5,35.8333 51.5,34.5 Z"/></g>
<g><path style="opacity:0.475" fill="#dedbe2" d="M 113.5,35.5 C 112.833,35.5 112.5,35.8333 112.5,36.5C 111.533,35.1938 110.199,34.5271 108.5,34.5C 108.5,34.1667 108.5,33.8333 108.5,33.5C 110.51,32.6509 112.177,33.3176 113.5,35.5 Z"/></g>
<g><path style="opacity:0.976" fill="#86848d" d="M 81.5,37.5 C 80.8333,37.8333 80.1667,38.1667 79.5,38.5C 79.5,38.1667 79.5,37.8333 79.5,37.5C 79.5,37.1667 79.5,36.8333 79.5,36.5C 80.1499,36.1961 80.8165,35.8627 81.5,35.5C 82.7733,36.2565 82.7733,36.9232 81.5,37.5 Z"/></g>
<g><path style="opacity:0.973" fill="#b2acbb" d="M 105.5,35.5 C 105.5,35.8333 105.5,36.1667 105.5,36.5C 105.267,38.0618 104.6,39.3951 103.5,40.5C 102.833,40.5 102.167,40.5 101.5,40.5C 102.604,38.6115 103.937,36.9448 105.5,35.5 Z"/></g>
<g><path style="opacity:0.29" fill="#e0dde3" d="M 48.5,37.5 C 49.5,39.5 50.5,41.5 51.5,43.5C 51.1583,44.3382 50.4916,44.6716 49.5,44.5C 48.8505,42.5648 48.5172,40.5648 48.5,38.5C 48.5,38.1667 48.5,37.8333 48.5,37.5 Z"/></g>
<g><path style="opacity:0.475" fill="#e3dee6" d="M 53.5,36.5 C 52.9182,38.998 52.9182,41.3313 53.5,43.5C 52.8333,43.5 52.1667,43.5 51.5,43.5C 51.5,41.8333 51.5,40.1667 51.5,38.5C 52.1667,37.8333 52.8333,37.1667 53.5,36.5 Z"/></g>
<g><path style="opacity:0.788" fill="#c6c3c6" d="M 64.5,39.5 C 64.8425,37.7748 65.8425,37.2748 67.5,38C 66.7562,39.0386 65.7562,39.5386 64.5,39.5 Z"/></g>
<g><path style="opacity:0.867" fill="#b8b5bd" d="M 81.5,37.5 C 82.0606,39.0655 81.3939,40.3989 79.5,41.5C 79.6716,40.5084 79.3382,39.8417 78.5,39.5C 78.5,38.8333 78.8333,38.5 79.5,38.5C 80.1667,38.1667 80.8333,37.8333 81.5,37.5 Z"/></g>
<g><path style="opacity:0.776" fill="#c5c0cb" d="M 113.5,35.5 C 114.234,36.7079 114.567,38.0413 114.5,39.5C 114.167,39.5 113.833,39.5 113.5,39.5C 112.596,38.791 112.263,37.791 112.5,36.5C 112.5,35.8333 112.833,35.5 113.5,35.5 Z"/></g>
<g><path style="opacity:0.922" fill="#b0abb9" d="M 113.5,39.5 C 113.833,39.5 114.167,39.5 114.5,39.5C 115.404,40.209 115.737,41.209 115.5,42.5C 114.833,42.5 114.167,42.5 113.5,42.5C 113.5,41.5 113.5,40.5 113.5,39.5 Z"/></g>
<g><path style="opacity:0.933" fill="#aea9ba" d="M 78.5,39.5 C 79.3382,39.8417 79.6716,40.5084 79.5,41.5C 79.7678,43.099 79.4345,44.4324 78.5,45.5C 78.6716,44.5084 78.3382,43.8417 77.5,43.5C 77.4326,42.0413 77.7659,40.7079 78.5,39.5 Z"/></g>
<g><path style="opacity:0.976" fill="#b7b3bd" d="M 64.5,39.5 C 65.3081,41.3003 64.8081,42.9669 63,44.5C 61.0927,42.2807 61.5927,40.614 64.5,39.5 Z"/></g>
<g><path style="opacity:0.992" fill="#736f81" d="M 101.5,40.5 C 102.167,40.5 102.833,40.5 103.5,40.5C 103.5,40.8333 103.5,41.1667 103.5,41.5C 102.833,42.8333 102.167,44.1667 101.5,45.5C 101.5,43.8333 101.5,42.1667 101.5,40.5 Z"/></g>
<g><path style="opacity:0.973" fill="#a49fb0" d="M 69.5,48.5 C 68.8333,47.1667 68.1667,45.8333 67.5,44.5C 67.5,43.1667 67.5,41.8333 67.5,40.5C 68.675,40.281 69.675,40.6143 70.5,41.5C 69.6258,43.7466 69.2924,46.0799 69.5,48.5 Z"/></g>
<g><path style="opacity:0.922" fill="#9895a2" d="M 113.5,42.5 C 114.167,42.5 114.833,42.5 115.5,42.5C 115.795,44.7354 115.461,46.7354 114.5,48.5C 113.833,48.5 113.5,48.1667 113.5,47.5C 113.5,45.8333 113.5,44.1667 113.5,42.5 Z"/></g>
<g><path style="opacity:1" fill="#e6e3e9" d="M 51.5,43.5 C 52.1667,43.5 52.8333,43.5 53.5,43.5C 52.8973,44.6348 52.5639,45.6348 52.5,46.5C 51.8333,46.5 51.1667,46.5 50.5,46.5C 49.6618,46.1583 49.3284,45.4916 49.5,44.5C 50.4916,44.6716 51.1583,44.3382 51.5,43.5 Z"/></g>
<g><path style="opacity:0.047" fill="#f6f6f3" d="M 131.5,44.5 C 132.833,45.1667 132.833,45.1667 131.5,44.5 Z"/></g>
<g><path style="opacity:0.957" fill="#aca9b7" d="M 103.5,41.5 C 103.448,43.9029 103.781,46.2362 104.5,48.5C 104.167,48.5 103.833,48.5 103.5,48.5C 102.094,48.0269 101.427,47.0269 101.5,45.5C 102.167,44.1667 102.833,42.8333 103.5,41.5 Z"/></g>
<g><path style="opacity:0.047" fill="#f5f5f2" d="M 124.5,46.5 C 124.897,45.475 125.563,45.3083 126.5,46C 125.906,46.4643 125.239,46.631 124.5,46.5 Z"/></g>
<g><path style="opacity:1" fill="#827b92" d="M 67.5,44.5 C 68.1667,45.8333 68.8333,47.1667 69.5,48.5C 69.5,48.8333 69.5,49.1667 69.5,49.5C 67.744,48.4479 67.0773,46.7812 67.5,44.5 Z"/></g>
<g><path style="opacity:0.047" fill="#f6f7f3" d="M 83.5,47.5 C 84.8333,48.1667 84.8333,48.1667 83.5,47.5 Z"/></g>
<g><path style="opacity:0.047" fill="#f5f6f3" d="M 87.5,47.5 C 88.8333,48.1667 88.8333,48.1667 87.5,47.5 Z"/></g>
<g><path style="opacity:1" fill="#585665" d="M 99.5,47.5 C 99.6716,48.4916 99.3382,49.1583 98.5,49.5C 97.5,48.8333 96.5,48.1667 95.5,47.5C 96.9613,46.3143 98.2946,46.3143 99.5,47.5 Z"/></g>
<g><path style="opacity:0.718" fill="#aba7b8" d="M 50.5,46.5 C 51.1667,46.5 51.8333,46.5 52.5,46.5C 52.5,47.5 52.5,48.5 52.5,49.5C 52.8128,53.0419 52.4794,56.3752 51.5,59.5C 51.0728,55.1756 50.7395,50.8422 50.5,46.5 Z"/></g>
<g><path style="opacity:0.973" fill="#8f8b9a" d="M 77.5,43.5 C 78.3382,43.8417 78.6716,44.5084 78.5,45.5C 78.5,46.8333 78.5,48.1667 78.5,49.5C 77.8333,49.5 77.1667,49.5 76.5,49.5C 76.3253,47.3792 76.6586,45.3792 77.5,43.5 Z"/></g>
<g><path style="opacity:0.996" fill="#8e8d9d" d="M 94.5,48.5 C 94.5,49.1667 94.8333,49.5 95.5,49.5C 94.7095,50.4013 93.7095,51.0679 92.5,51.5C 92.1583,50.6618 91.4916,50.3284 90.5,50.5C 91.5137,49.3263 92.847,48.6596 94.5,48.5 Z"/></g>
<g><path style="opacity:1" fill="#807e90" d="M 95.5,47.5 C 96.5,48.1667 97.5,48.8333 98.5,49.5C 97.5,49.5 96.5,49.5 95.5,49.5C 94.8333,49.5 94.5,49.1667 94.5,48.5C 94.5,47.8333 94.8333,47.5 95.5,47.5 Z"/></g>
<g><path style="opacity:0.949" fill="#9291a0" d="M 103.5,48.5 C 103.833,48.5 104.167,48.5 104.5,48.5C 105.5,48.8333 106.167,49.5 106.5,50.5C 105.833,50.5 105.167,50.5 104.5,50.5C 103.662,50.1583 103.328,49.4916 103.5,48.5 Z"/></g>
<g><path style="opacity:0.949" fill="#a19faf" d="M 76.5,49.5 C 77.1667,49.5 77.8333,49.5 78.5,49.5C 78.7706,51.4305 79.7706,52.7638 81.5,53.5C 80.5084,53.3284 79.8417,53.6618 79.5,54.5C 77.2591,53.7002 76.2591,52.0336 76.5,49.5 Z"/></g>
<g><path style="opacity:0.996" fill="#908d9f" d="M 99.5,47.5 C 100.909,49.9717 102.576,52.305 104.5,54.5C 103.833,54.5 103.5,54.8333 103.5,55.5C 101.11,54.1092 99.4431,52.1092 98.5,49.5C 99.3382,49.1583 99.6716,48.4916 99.5,47.5 Z"/></g>
<g><path style="opacity:0.925" fill="#a8a6b1" d="M 104.5,50.5 C 105.167,50.5 105.833,50.5 106.5,50.5C 107.791,50.2627 108.791,50.596 109.5,51.5C 108.508,51.3284 107.842,51.6618 107.5,52.5C 106.29,52.0679 105.29,51.4013 104.5,50.5 Z"/></g>
<g><path style="opacity:0.937" fill="#b2b0bb" d="M 113.5,47.5 C 113.5,48.1667 113.833,48.5 114.5,48.5C 114.672,49.4916 114.338,50.1583 113.5,50.5C 112.833,50.5 112.5,50.8333 112.5,51.5C 112.167,51.5 111.833,51.5 111.5,51.5C 111.66,49.847 112.326,48.5137 113.5,47.5 Z"/></g>
<g><path style="opacity:1" fill="#b0acba" d="M 67.5,44.5 C 67.0773,46.7812 67.744,48.4479 69.5,49.5C 69.5,51.1667 69.5,52.8333 69.5,54.5C 69.6716,55.4916 69.3382,56.1583 68.5,56.5C 68.5,55.8333 68.1667,55.5 67.5,55.5C 66.6618,55.1583 66.3284,54.4916 66.5,53.5C 66.19,50.2869 66.5233,47.2869 67.5,44.5 Z"/></g>
<g><path style="opacity:0.996" fill="#7a7989" d="M 90.5,50.5 C 91.4916,50.3284 92.1583,50.6618 92.5,51.5C 91.1667,52.1667 89.8333,52.8333 88.5,53.5C 88.5,52.8333 88.5,52.1667 88.5,51.5C 88.8417,50.6618 89.5084,50.3284 90.5,50.5 Z"/></g>
<g><path style="opacity:0.996" fill="#605e6f" d="M 107.5,52.5 C 107.842,51.6618 108.508,51.3284 109.5,51.5C 110.167,51.5 110.833,51.5 111.5,51.5C 111.833,51.5 112.167,51.5 112.5,51.5C 112.5,51.8333 112.5,52.1667 112.5,52.5C 111.833,52.5 111.5,52.8333 111.5,53.5C 111.167,53.5 110.833,53.5 110.5,53.5C 110.5,52.8333 110.167,52.5 109.5,52.5C 108.833,52.5 108.167,52.5 107.5,52.5 Z"/></g>
<g><path style="opacity:0.576" fill="#d6d3da" d="M 113.5,50.5 C 115.265,51.4614 117.265,51.7947 119.5,51.5C 117.393,52.4682 115.059,52.8016 112.5,52.5C 112.5,52.1667 112.5,51.8333 112.5,51.5C 112.5,50.8333 112.833,50.5 113.5,50.5 Z"/></g>
<g><path style="opacity:0.353" fill="#eae8e9" d="M 120.5,53.5 C 120.5,52.8333 120.5,52.1667 120.5,51.5C 128.365,50.5808 128.365,51.2475 120.5,53.5 Z"/></g>
<g><path style="opacity:0.678" fill="#bcb6c2" d="M 119.5,51.5 C 119.833,51.5 120.167,51.5 120.5,51.5C 120.5,52.1667 120.5,52.8333 120.5,53.5C 117.5,53.5 114.5,53.5 111.5,53.5C 111.5,52.8333 111.833,52.5 112.5,52.5C 115.059,52.8016 117.393,52.4682 119.5,51.5 Z"/></g>
<g><path style="opacity:0.988" fill="#8e8c9c" d="M 88.5,51.5 C 88.5,52.1667 88.5,52.8333 88.5,53.5C 85.5507,55.4986 82.5507,55.8319 79.5,54.5C 79.8417,53.6618 80.5084,53.3284 81.5,53.5C 83.8333,52.8333 86.1667,52.1667 88.5,51.5 Z"/></g>
<g><path style="opacity:0.871" fill="#c1bdc8" d="M 66.5,53.5 C 66.3284,54.4916 66.6618,55.1583 67.5,55.5C 67.6716,56.4916 67.3382,57.1583 66.5,57.5C 66.5,56.8333 66.1667,56.5 65.5,56.5C 65.2627,55.209 65.596,54.209 66.5,53.5 Z"/></g>
<g><path style="opacity:0.957" fill="#807e8a" d="M 109.5,52.5 C 110.167,52.5 110.5,52.8333 110.5,53.5C 110.423,54.7498 109.756,55.5831 108.5,56C 106.613,56.7796 104.946,56.6129 103.5,55.5C 103.5,54.8333 103.833,54.5 104.5,54.5C 106.698,54.8799 108.365,54.2132 109.5,52.5 Z"/></g>
<g><path style="opacity:0.698" fill="#ccc9d5" d="M 69.5,54.5 C 70.404,55.209 70.7373,56.209 70.5,57.5C 69.8333,57.5 69.5,57.8333 69.5,58.5C 68.6618,58.1583 68.3284,57.4916 68.5,56.5C 69.3382,56.1583 69.6716,55.4916 69.5,54.5 Z"/></g>
<g><path style="opacity:0.812" fill="#a19ead" d="M 65.5,56.5 C 66.1667,56.5 66.5,56.8333 66.5,57.5C 66.5,58.1667 66.5,58.8333 66.5,59.5C 65.8333,59.5 65.1667,59.5 64.5,59.5C 64.5569,58.391 64.8902,57.391 65.5,56.5 Z"/></g>
<g><path style="opacity:0.988" fill="#a09dac" d="M 70.5,57.5 C 71.1667,58.5 71.8333,59.5 72.5,60.5C 71.8333,60.5 71.5,60.8333 71.5,61.5C 70.0937,61.0269 69.427,60.0269 69.5,58.5C 69.5,57.8333 69.8333,57.5 70.5,57.5 Z"/></g>
<g><path style="opacity:0.843" fill="#cec8d1" d="M 78.5,59.5 C 78.1667,59.5 77.8333,59.5 77.5,59.5C 78.1217,58.3734 78.955,57.3734 80,56.5C 80.5847,57.9976 80.0847,58.9976 78.5,59.5 Z"/></g>
<g><path style="opacity:0.788" fill="#c7c3cf" d="M 52.5,49.5 C 53.4849,53.6344 53.8182,57.9677 53.5,62.5C 52.8333,62.1667 52.1667,61.8333 51.5,61.5C 51.5,60.8333 51.5,60.1667 51.5,59.5C 52.4794,56.3752 52.8128,53.0419 52.5,49.5 Z"/></g>
<g><path style="opacity:0.992" fill="#908e9c" d="M 77.5,59.5 C 77.8333,59.5 78.1667,59.5 78.5,59.5C 76.8567,62.4947 74.5233,63.1614 71.5,61.5C 71.5,60.8333 71.8333,60.5 72.5,60.5C 74.2161,60.3713 75.8828,60.038 77.5,59.5 Z"/></g>
<g><path style="opacity:0.878" fill="#c2c0ca" d="M 64.5,59.5 C 65.1667,59.5 65.8333,59.5 66.5,59.5C 66.3146,61.1958 65.4813,62.5291 64,63.5C 63.4209,62.0715 63.5876,60.7382 64.5,59.5 Z"/></g>
<g><path style="opacity:0.902" fill="#a8a4b5" d="M 51.5,61.5 C 52.1667,61.8333 52.8333,62.1667 53.5,62.5C 54.8526,63.8671 54.5193,64.8671 52.5,65.5C 51.5713,64.3112 51.238,62.9778 51.5,61.5 Z"/></g>
<g><path style="opacity:0.047" fill="#f5f6f2" d="M 82.5,69.5 C 83.8333,70.1667 83.8333,70.1667 82.5,69.5 Z"/></g>
<g><path style="opacity:0.173" fill="#f0f1ec" d="M 94.5,69.5 C 95.8333,70.1667 95.8333,70.1667 94.5,69.5 Z"/></g>
<g><path style="opacity:0.024" fill="#f5f6f3" d="M 54.5,71.5 C 55.8333,72.1667 55.8333,72.1667 54.5,71.5 Z"/></g>
</svg>
